<mxfile host="app.diagrams.net" modified="2021-09-21T05:33:58.390Z" agent="5.0 (Windows NT 10.0; Win64; x64) AppleWebKit/537.36 (KHTML, like Gecko) Chrome/93.0.4577.82 Safari/537.36" etag="94sK46QFtaG4HMFemgpl" version="15.2.9" type="github">
  <diagram id="cInrhFLn6qQbWSno-eeX" name="Page-1">
    <mxGraphModel dx="1662" dy="794" grid="1" gridSize="10" guides="1" tooltips="1" connect="1" arrows="1" fold="1" page="1" pageScale="1" pageWidth="850" pageHeight="1100" math="0" shadow="0">
      <root>
        <mxCell id="0" />
        <mxCell id="1" parent="0" />
        <mxCell id="Wp7_NT9xzsfMRJrsje2--1" value="Excel&lt;br&gt;Data Cleaning" style="whiteSpace=wrap;html=1;aspect=fixed;" vertex="1" parent="1">
          <mxGeometry x="250" y="80" width="80" height="80" as="geometry" />
        </mxCell>
        <mxCell id="Wp7_NT9xzsfMRJrsje2--2" value="CSV File" style="rounded=0;whiteSpace=wrap;html=1;" vertex="1" parent="1">
          <mxGeometry x="250" y="60" width="80" height="20" as="geometry" />
        </mxCell>
        <mxCell id="Wp7_NT9xzsfMRJrsje2--4" value="Web Scraping" style="rounded=0;whiteSpace=wrap;html=1;" vertex="1" parent="1">
          <mxGeometry x="560" y="80" width="80" height="80" as="geometry" />
        </mxCell>
        <mxCell id="Wp7_NT9xzsfMRJrsje2--5" value="Website" style="rounded=0;whiteSpace=wrap;html=1;" vertex="1" parent="1">
          <mxGeometry x="560" y="60" width="80" height="20" as="geometry" />
        </mxCell>
        <mxCell id="Wp7_NT9xzsfMRJrsje2--8" value="JMP" style="rounded=0;whiteSpace=wrap;html=1;" vertex="1" parent="1">
          <mxGeometry x="160" y="240" width="90" height="70" as="geometry" />
        </mxCell>
        <mxCell id="Wp7_NT9xzsfMRJrsje2--9" value="Modeling" style="rounded=0;whiteSpace=wrap;html=1;" vertex="1" parent="1">
          <mxGeometry x="160" y="210" width="90" height="30" as="geometry" />
        </mxCell>
        <mxCell id="Wp7_NT9xzsfMRJrsje2--10" value="" style="endArrow=classic;html=1;exitX=0.663;exitY=0.988;exitDx=0;exitDy=0;exitPerimeter=0;" edge="1" parent="1" source="Wp7_NT9xzsfMRJrsje2--1">
          <mxGeometry width="50" height="50" relative="1" as="geometry">
            <mxPoint x="310" y="170" as="sourcePoint" />
            <mxPoint x="360" y="210" as="targetPoint" />
          </mxGeometry>
        </mxCell>
        <mxCell id="Wp7_NT9xzsfMRJrsje2--11" value="Tableau&amp;nbsp;" style="rounded=0;whiteSpace=wrap;html=1;" vertex="1" parent="1">
          <mxGeometry x="340" y="240" width="80" height="70" as="geometry" />
        </mxCell>
        <mxCell id="Wp7_NT9xzsfMRJrsje2--18" style="edgeStyle=orthogonalEdgeStyle;shape=flexArrow;rounded=0;orthogonalLoop=1;jettySize=auto;html=1;exitX=1;exitY=0.75;exitDx=0;exitDy=0;" edge="1" parent="1" source="Wp7_NT9xzsfMRJrsje2--12">
          <mxGeometry relative="1" as="geometry">
            <mxPoint x="420" y="233" as="targetPoint" />
          </mxGeometry>
        </mxCell>
        <mxCell id="Wp7_NT9xzsfMRJrsje2--12" value="Data Visualization&amp;nbsp;" style="rounded=0;whiteSpace=wrap;html=1;" vertex="1" parent="1">
          <mxGeometry x="340" y="210" width="80" height="30" as="geometry" />
        </mxCell>
        <mxCell id="Wp7_NT9xzsfMRJrsje2--13" value="" style="endArrow=classic;html=1;exitX=0.5;exitY=1;exitDx=0;exitDy=0;" edge="1" parent="1" source="Wp7_NT9xzsfMRJrsje2--8">
          <mxGeometry width="50" height="50" relative="1" as="geometry">
            <mxPoint x="250" y="460" as="sourcePoint" />
            <mxPoint x="240" y="380" as="targetPoint" />
          </mxGeometry>
        </mxCell>
        <mxCell id="Wp7_NT9xzsfMRJrsje2--14" value="" style="endArrow=classic;html=1;exitX=0.5;exitY=1;exitDx=0;exitDy=0;" edge="1" parent="1" source="Wp7_NT9xzsfMRJrsje2--11">
          <mxGeometry width="50" height="50" relative="1" as="geometry">
            <mxPoint x="400" y="320" as="sourcePoint" />
            <mxPoint x="330" y="380" as="targetPoint" />
          </mxGeometry>
        </mxCell>
        <mxCell id="Wp7_NT9xzsfMRJrsje2--15" value="Final Result" style="rounded=0;whiteSpace=wrap;html=1;" vertex="1" parent="1">
          <mxGeometry x="230" y="380" width="110" height="30" as="geometry" />
        </mxCell>
        <mxCell id="Wp7_NT9xzsfMRJrsje2--16" value="Python, SQL, R" style="rounded=0;whiteSpace=wrap;html=1;" vertex="1" parent="1">
          <mxGeometry x="230" y="410" width="110" height="60" as="geometry" />
        </mxCell>
        <mxCell id="Wp7_NT9xzsfMRJrsje2--17" value="" style="endArrow=classic;html=1;entryX=0.5;entryY=0;entryDx=0;entryDy=0;" edge="1" parent="1" target="Wp7_NT9xzsfMRJrsje2--9">
          <mxGeometry width="50" height="50" relative="1" as="geometry">
            <mxPoint x="281" y="159" as="sourcePoint" />
            <mxPoint x="570" y="270" as="targetPoint" />
          </mxGeometry>
        </mxCell>
      </root>
    </mxGraphModel>
  </diagram>
</mxfile>
